<svg xmlns="http://www.w3.org/2000/svg" viewBox="0 0 256 256">
  <title>HelloUtau</title>
  <rect width="256" height="256" rx="48" fill="#12304a"/>
  <path d="M38 58h180v124H38z" fill="#1e79b5"/>
  <path d="M38 58h180v18H38z" fill="#2ca9e8"/>
  <path d="M38 182h180v16H38z" fill="#0d2234"/>
  <path d="M62 58v124M86 58v124M110 58v124M134 58v124M158 58v124M182 58v124M206 58v124"
        fill="none" stroke="#9ddcff" stroke-width="4" opacity=".72"/>
  <path d="M38 142c20 0 26-54 48-54s26 70 48 70 27-86 48-86 25 45 36 45"
        fill="none" stroke="#fff" stroke-width="12" stroke-linecap="round" stroke-linejoin="round"/>
  <path d="M38 142c20 0 26-54 48-54s26 70 48 70 27-86 48-86 25 45 36 45"
        fill="none" stroke="#b8edff" stroke-width="4" stroke-linecap="round" stroke-linejoin="round"/>
  <path d="M62 58v58M110 58v58M158 58v58M206 58v58" stroke="#12304a" stroke-width="9"/>
  <circle cx="182" cy="72" r="9" fill="#fff"/>
</svg>
